<svg width="1440" height="900" viewBox="0 0 1440 900" fill="none" xmlns="http://www.w3.org/2000/svg">
  <defs>
    <linearGradient id="bg" x1="120" y1="80" x2="1320" y2="860" gradientUnits="userSpaceOnUse">
      <stop stop-color="#FFF7EF"/>
      <stop offset="1" stop-color="#F1E5D7"/>
    </linearGradient>
    <linearGradient id="orange" x1="0" y1="0" x2="1" y2="1">
      <stop stop-color="#FF9A43"/>
      <stop offset="1" stop-color="#E76402"/>
    </linearGradient>
    <linearGradient id="teal" x1="0" y1="0" x2="1" y2="1">
      <stop stop-color="#2CC7BE"/>
      <stop offset="1" stop-color="#0F8F89"/>
    </linearGradient>
    <linearGradient id="panel" x1="0" y1="0" x2="0" y2="1">
      <stop stop-color="#FFFFFF" stop-opacity="0.96"/>
      <stop offset="1" stop-color="#FFF7EE" stop-opacity="0.94"/>
    </linearGradient>
    <filter id="shadow" x="0" y="0" width="1440" height="900" filterUnits="userSpaceOnUse" color-interpolation-filters="sRGB">
      <feDropShadow dx="0" dy="24" stdDeviation="30" flood-color="#573816" flood-opacity="0.12"/>
    </filter>
  </defs>
  <rect width="1440" height="900" rx="36" fill="url(#bg)"/>
  <circle cx="170" cy="130" r="150" fill="#FFD6B0" fill-opacity="0.55"/>
  <circle cx="1240" cy="180" r="180" fill="#BDEFEA" fill-opacity="0.7"/>
  <circle cx="1150" cy="780" r="150" fill="#E6DEFF" fill-opacity="0.55"/>
  <g filter="url(#shadow)">
    <rect x="48" y="42" width="1344" height="816" rx="30" fill="#FFFFFF" fill-opacity="0.56"/>
    <rect x="48" y="42" width="1344" height="816" rx="30" stroke="#FFFFFF" stroke-opacity="0.8"/>
  </g>
  <rect x="72" y="72" width="284" height="756" rx="28" fill="#FFFDF8" fill-opacity="0.88"/>
  <rect x="378" y="72" width="990" height="756" rx="28" fill="#FFFDFC" fill-opacity="0.82"/>
  <rect x="102" y="102" width="48" height="48" rx="16" fill="url(#orange)"/>
  <text x="126" y="133" text-anchor="middle" fill="white" font-family="Inter, Arial, sans-serif" font-size="24" font-weight="800">A</text>
  <text x="166" y="126" fill="#1D1C19" font-family="Inter, Arial, sans-serif" font-size="34" font-weight="800">AtlasIQ</text>
  <text x="303" y="126" fill="#F17A18" font-family="Inter, Arial, sans-serif" font-size="34" font-weight="800">Ops</text>
  <text x="103" y="185" fill="#F17A18" font-family="Inter, Arial, sans-serif" font-size="13" font-weight="800" letter-spacing="2">KNOWLEDGE OPS PLATFORM</text>
  <g fill="#4E483F" font-family="Inter, Arial, sans-serif" font-size="18" font-weight="700">
    <text x="120" y="258">Home</text>
    <text x="120" y="308">Workspaces</text>
    <text x="120" y="358">Ingestion</text>
    <text x="120" y="408">Insight Studio</text>
    <text x="120" y="458">Review &amp; Study</text>
    <text x="120" y="508">Reports</text>
    <text x="120" y="558">Exports</text>
    <text x="120" y="608">Admin</text>
  </g>
  <rect x="92" y="228" width="228" height="44" rx="16" fill="#FFF0E0"/>
  <text x="410" y="126" fill="#F17A18" font-family="Inter, Arial, sans-serif" font-size="13" font-weight="800" letter-spacing="2">OVERVIEW</text>
  <text x="410" y="174" fill="#1D1C19" font-family="Inter, Arial, sans-serif" font-size="42" font-weight="800">Visual knowledge operations</text>
  <text x="410" y="214" fill="#6F665B" font-family="Inter, Arial, sans-serif" font-size="20" font-weight="500">Transform long-form knowledge into visual, reusable, review-ready learning assets.</text>
  <rect x="410" y="250" width="404" height="150" rx="26" fill="url(#panel)"/>
  <rect x="836" y="250" width="258" height="150" rx="26" fill="url(#panel)"/>
  <rect x="1116" y="250" width="228" height="150" rx="26" fill="url(#panel)"/>
  <text x="438" y="284" fill="#F17A18" font-family="Inter, Arial, sans-serif" font-size="13" font-weight="800" letter-spacing="2">OPERATIONS SIGNAL</text>
  <text x="438" y="326" fill="#1D1C19" font-family="Inter, Arial, sans-serif" font-size="28" font-weight="800">One source becomes a full learning system.</text>
  <text x="438" y="366" fill="#6F665B" font-family="Inter, Arial, sans-serif" font-size="18" font-weight="500">Summaries, graphs, review assets, exports, and traceability flow from the same input.</text>
  <circle cx="760" cy="326" r="42" fill="url(#teal)"/>
  <circle cx="700" cy="292" r="28" fill="white"/>
  <circle cx="816" cy="286" r="28" fill="white"/>
  <circle cx="698" cy="360" r="28" fill="white"/>
  <circle cx="818" cy="366" r="28" fill="white"/>
  <text x="760" y="332" text-anchor="middle" fill="white" font-family="Inter, Arial, sans-serif" font-size="16" font-weight="800">Source</text>
  <text x="860" y="296" fill="#F17A18" font-family="Inter, Arial, sans-serif" font-size="13" font-weight="800" letter-spacing="2">PIPELINE HEALTH</text>
  <text x="860" y="338" fill="#1D1C19" font-family="Inter, Arial, sans-serif" font-size="24" font-weight="800">3 active sources</text>
  <text x="860" y="372" fill="#6F665B" font-family="Inter, Arial, sans-serif" font-size="17" font-weight="500">Transformation and traceability running cleanly.</text>
  <text x="1140" y="296" fill="#F17A18" font-family="Inter, Arial, sans-serif" font-size="13" font-weight="800" letter-spacing="2">RECOMMENDED</text>
  <text x="1140" y="338" fill="#1D1C19" font-family="Inter, Arial, sans-serif" font-size="24" font-weight="800">Open review mode</text>
  <text x="1140" y="372" fill="#6F665B" font-family="Inter, Arial, sans-serif" font-size="17" font-weight="500">Focus on weak-topic reinforcement this week.</text>
  <g>
    <rect x="410" y="428" width="146" height="118" rx="24" fill="url(#panel)"/>
    <rect x="576" y="428" width="146" height="118" rx="24" fill="url(#panel)"/>
    <rect x="742" y="428" width="146" height="118" rx="24" fill="url(#panel)"/>
    <rect x="908" y="428" width="146" height="118" rx="24" fill="url(#panel)"/>
    <rect x="1074" y="428" width="146" height="118" rx="24" fill="url(#panel)"/>
    <rect x="1240" y="428" width="104" height="118" rx="24" fill="url(#panel)"/>
  </g>
  <g font-family="Inter, Arial, sans-serif">
    <text x="434" y="462" fill="#7B7166" font-size="14" font-weight="700">Workspaces</text>
    <text x="434" y="514" fill="#1D1C19" font-size="40" font-weight="800">24</text>
    <text x="600" y="462" fill="#7B7166" font-size="14" font-weight="700">Processed</text>
    <text x="600" y="514" fill="#1D1C19" font-size="40" font-weight="800">1,248</text>
    <text x="766" y="462" fill="#7B7166" font-size="14" font-weight="700">Assets</text>
    <text x="766" y="514" fill="#1D1C19" font-size="40" font-weight="800">3,674</text>
    <text x="932" y="462" fill="#7B7166" font-size="14" font-weight="700">Learners</text>
    <text x="932" y="514" fill="#1D1C19" font-size="40" font-weight="800">812</text>
    <text x="1098" y="462" fill="#7B7166" font-size="14" font-weight="700">Comprehension</text>
    <text x="1098" y="514" fill="#1D1C19" font-size="40" font-weight="800">76%</text>
    <text x="1262" y="462" fill="#7B7166" font-size="14" font-weight="700">Saved</text>
    <text x="1262" y="514" fill="#1D1C19" font-size="30" font-weight="800">220h</text>
  </g>
  <rect x="410" y="572" width="384" height="220" rx="28" fill="url(#panel)"/>
  <rect x="816" y="572" width="292" height="220" rx="28" fill="url(#panel)"/>
  <rect x="1128" y="572" width="216" height="220" rx="28" fill="url(#panel)"/>
  <text x="438" y="608" fill="#1D1C19" font-family="Inter, Arial, sans-serif" font-size="24" font-weight="800">Content Ingestion</text>
  <rect x="438" y="630" width="328" height="110" rx="22" fill="#FFF9F2" stroke="#EBD5BA" stroke-dasharray="8 8"/>
  <text x="604" y="688" text-anchor="middle" fill="#6F665B" font-family="Inter, Arial, sans-serif" font-size="18" font-weight="600">Drag, drop, or paste source content</text>
  <text x="844" y="608" fill="#1D1C19" font-family="Inter, Arial, sans-serif" font-size="24" font-weight="800">Knowledge Map</text>
  <circle cx="958" cy="686" r="44" fill="url(#teal)"/>
  <circle cx="896" cy="652" r="28" fill="white"/>
  <circle cx="1024" cy="652" r="28" fill="white"/>
  <circle cx="900" cy="722" r="28" fill="white"/>
  <circle cx="1020" cy="722" r="28" fill="white"/>
  <text x="958" y="692" text-anchor="middle" fill="white" font-family="Inter, Arial, sans-serif" font-size="15" font-weight="800">AI Gov</text>
  <text x="1156" y="608" fill="#1D1C19" font-family="Inter, Arial, sans-serif" font-size="24" font-weight="800">Charts</text>
  <rect x="1160" y="720" width="28" height="42" rx="14" fill="url(#teal)"/>
  <rect x="1200" y="684" width="28" height="78" rx="14" fill="url(#teal)"/>
  <rect x="1240" y="648" width="28" height="114" rx="14" fill="url(#teal)"/>
  <rect x="1280" y="694" width="28" height="68" rx="14" fill="url(#teal)"/>
  <text x="92" y="792" fill="#F17A18" font-family="Inter, Arial, sans-serif" font-size="18" font-weight="800">Professional multipage knowledge operations platform</text>
</svg>

